<svg xmlns="http://www.w3.org/2000/svg" width="720" height="360" viewBox="0 0 720 360"><rect width="100%" height="100%" fill="white"/><text x="20" y="28" font-size="18">dedup_ablation: validation loss</text><text x="20" y="48" font-size="11">config adc73ba41e5f; error bars are bootstrap 95% CIs</text><rect x="100" y="68.9" width="178" height="221.1" fill="#35618f"/><line x1="189.0" y1="65.3" x2="189.0" y2="71.6" stroke="#111"/><line x1="184.0" y1="65.3" x2="194.0" y2="65.3" stroke="#111"/><line x1="184.0" y1="71.6" x2="194.0" y2="71.6" stroke="#111"/><text x="100" y="315" font-size="11" transform="rotate(25 100 315)">threshold_0.40</text><rect x="286" y="69.3" width="178" height="220.7" fill="#35618f"/><line x1="375.0" y1="62.7" x2="375.0" y2="73.0" stroke="#111"/><line x1="370.0" y1="62.7" x2="380.0" y2="62.7" stroke="#111"/><line x1="370.0" y1="73.0" x2="380.0" y2="73.0" stroke="#111"/><text x="286" y="315" font-size="11" transform="rotate(25 286 315)">threshold_0.50</text><rect x="472" y="68.4" width="178" height="221.6" fill="#35618f"/><line x1="561.0" y1="60.0" x2="561.0" y2="73.8" stroke="#111"/><line x1="556.0" y1="60.0" x2="566.0" y2="60.0" stroke="#111"/><line x1="556.0" y1="73.8" x2="566.0" y2="73.8" stroke="#111"/><text x="472" y="315" font-size="11" transform="rotate(25 472 315)">threshold_0.60</text></svg>
