<svg xmlns="http://www.w3.org/2000/svg" width="720" height="360" viewBox="0 0 720 360"><rect width="100%" height="100%" fill="white"/><text x="20" y="28" font-size="18">mixture_ablation: validation loss</text><text x="20" y="48" font-size="11">config 008655194a79; error bars are bootstrap 95% CIs</text><rect x="100" y="65.4" width="104" height="224.6" fill="#35618f"/><line x1="152.0" y1="60.0" x2="152.0" y2="69.1" stroke="#111"/><line x1="147.0" y1="60.0" x2="157.0" y2="60.0" stroke="#111"/><line x1="147.0" y1="69.1" x2="157.0" y2="69.1" stroke="#111"/><text x="100" y="315" font-size="11" transform="rotate(25 100 315)">code_heavy</text><rect x="212" y="77.6" width="104" height="212.4" fill="#35618f"/><line x1="264.0" y1="76.6" x2="264.0" y2="79.6" stroke="#111"/><line x1="259.0" y1="76.6" x2="269.0" y2="76.6" stroke="#111"/><line x1="259.0" y1="79.6" x2="269.0" y2="79.6" stroke="#111"/><text x="212" y="315" font-size="11" transform="rotate(25 212 315)">observed</text><rect x="324" y="76.7" width="104" height="213.3" fill="#35618f"/><line x1="376.0" y1="76.6" x2="376.0" y2="76.8" stroke="#111"/><line x1="371.0" y1="76.6" x2="381.0" y2="76.6" stroke="#111"/><line x1="371.0" y1="76.8" x2="381.0" y2="76.8" stroke="#111"/><text x="324" y="315" font-size="11" transform="rotate(25 324 315)">proxy_selected_observed</text><rect x="436" y="78.1" width="104" height="211.9" fill="#35618f"/><line x1="488.0" y1="78.1" x2="488.0" y2="78.1" stroke="#111"/><line x1="483.0" y1="78.1" x2="493.0" y2="78.1" stroke="#111"/><line x1="483.0" y1="78.1" x2="493.0" y2="78.1" stroke="#111"/><text x="436" y="315" font-size="11" transform="rotate(25 436 315)">proxy_selected_uniform</text><rect x="548" y="77.1" width="104" height="212.9" fill="#35618f"/><line x1="600.0" y1="74.4" x2="600.0" y2="78.8" stroke="#111"/><line x1="595.0" y1="74.4" x2="605.0" y2="74.4" stroke="#111"/><line x1="595.0" y1="78.8" x2="605.0" y2="78.8" stroke="#111"/><text x="548" y="315" font-size="11" transform="rotate(25 548 315)">uniform</text></svg>
