<svg xmlns="http://www.w3.org/2000/svg" width="900" height="460" viewBox="0 0 900 460"><title>Out-of-sample forecast</title><desc>First test horizon; chronology preserved</desc><rect width="100%" height="100%" fill="#fbfcfe"/><text x="36" y="36" font-family="sans-serif" font-size="22" fill="#18212f">Out-of-sample forecast</text><text x="36" y="58" font-family="sans-serif" font-size="12" fill="#5b6675">First test horizon; chronology preserved</text><line x1="70" y1="405" x2="850" y2="405" stroke="#9aa4b2"/><polygon points="70.0,287.1 74.4,281.2 78.7,283.6 83.1,283.5 87.4,279.0 91.8,274.9 96.1,277.4 100.5,276.5 104.9,268.8 109.2,261.7 113.6,261.9 117.9,261.8 122.3,262.0 126.6,259.7 131.0,261.6 135.4,256.0 139.7,253.5 144.1,253.0 148.4,254.2 152.8,254.0 157.2,253.4 161.5,252.4 165.9,252.7 170.2,251.6 174.6,249.9 178.9,249.9 183.3,249.9 187.7,250.8 192.0,249.5 196.4,249.4 200.7,250.3 205.1,249.4 209.4,249.7 213.8,248.4 218.2,249.3 222.5,253.9 226.9,248.9 231.2,250.8 235.6,253.4 239.9,250.6 244.3,251.1 248.7,250.0 253.0,252.0 257.4,254.2 261.7,255.1 266.1,257.3 270.4,259.0 274.8,260.8 279.2,260.7 283.5,264.8 287.9,263.7 292.2,263.7 296.6,264.5 300.9,263.0 305.3,264.8 309.7,263.5 314.0,261.1 318.4,260.6 322.7,258.2 327.1,259.2 331.5,257.6 335.8,255.2 340.2,257.5 344.5,257.0 348.9,255.1 353.2,259.5 357.6,260.4 362.0,260.3 366.3,260.2 370.7,257.0 375.0,257.5 379.4,258.7 383.7,257.4 388.1,261.7 392.5,261.6 396.8,262.2 401.2,260.5 405.5,259.5 409.9,260.4 414.2,262.8 418.6,261.1 423.0,265.6 427.3,270.8 431.7,270.7 436.0,271.2 440.4,269.3 444.7,274.6 449.1,278.1 453.5,277.9 457.8,289.0 462.2,296.0 466.5,299.5 470.9,302.2 475.3,310.4 479.6,314.4 484.0,316.0 488.3,315.4 492.7,319.1 497.0,322.0 501.4,320.5 505.8,319.4 510.1,322.6 514.5,322.6 518.8,323.2 523.2,324.0 527.5,324.8 531.9,322.7 536.3,316.3 540.6,317.8 545.0,314.5 549.3,316.2 553.7,316.5 558.0,317.7 562.4,317.0 566.8,315.4 571.1,318.6 575.5,318.9 579.8,313.0 584.2,311.7 588.5,308.9 592.9,304.5 597.3,305.4 601.6,304.0 606.0,304.3 610.3,303.7 614.7,295.6 619.1,292.2 623.4,292.4 627.8,292.1 632.1,294.8 636.5,303.7 640.8,303.7 645.2,299.0 649.6,300.8 653.9,299.4 658.3,306.4 662.6,303.0 667.0,304.1 671.3,306.3 675.7,304.9 680.1,296.3 684.4,302.4 688.8,294.6 693.1,293.1 697.5,293.6 701.8,287.2 706.2,296.2 710.6,295.7 714.9,292.4 719.3,301.0 723.6,296.3 728.0,295.6 732.3,295.0 736.7,290.5 741.1,301.0 745.4,302.7 749.8,302.9 754.1,299.9 758.5,294.9 762.8,289.0 767.2,290.1 771.6,284.9 775.9,291.9 780.3,298.6 784.6,292.3 789.0,297.7 793.4,298.3 797.7,291.2 802.1,292.4 806.4,292.3 810.8,303.2 815.1,314.0 819.5,305.8 823.9,302.4 828.2,313.4 832.6,301.5 836.9,302.0 841.3,300.4 845.6,303.1 850.0,315.9 850.0,164.3 845.6,168.9 841.3,168.5 836.9,169.6 832.6,168.0 828.2,160.0 823.9,165.4 819.5,163.7 815.1,164.1 810.8,170.6 806.4,170.0 802.1,176.1 797.7,181.8 793.4,175.0 789.0,175.4 784.6,181.1 780.3,176.9 775.9,186.0 771.6,187.8 767.2,186.7 762.8,188.1 758.5,179.6 754.1,177.1 749.8,174.7 745.4,174.4 741.1,179.6 736.7,182.1 732.3,178.6 728.0,179.1 723.6,178.4 719.3,169.9 714.9,185.4 710.6,183.2 706.2,187.5 701.8,187.4 697.5,184.9 693.1,187.4 688.8,182.4 684.4,171.5 680.1,184.8 675.7,175.2 671.3,181.1 667.0,178.8 662.6,171.6 658.3,172.4 653.9,179.1 649.6,174.9 645.2,179.8 640.8,173.9 636.5,177.4 632.1,179.4 627.8,182.1 623.4,180.0 619.1,179.1 614.7,168.1 610.3,166.2 606.0,162.8 601.6,163.6 597.3,159.2 592.9,162.8 588.5,158.8 584.2,161.0 579.8,162.1 575.5,158.9 571.1,156.6 566.8,158.4 562.4,156.2 558.0,155.5 553.7,153.4 549.3,156.4 545.0,158.8 540.6,158.1 536.3,157.1 531.9,156.3 527.5,154.6 523.2,154.1 518.8,155.0 514.5,155.2 510.1,154.8 505.8,154.8 501.4,153.4 497.0,153.4 492.7,152.6 488.3,152.1 484.0,152.7 479.6,153.5 475.3,153.8 470.9,154.8 466.5,155.3 462.2,157.0 457.8,160.3 453.5,166.1 449.1,166.2 444.7,168.7 440.4,172.0 436.0,169.6 431.7,168.6 427.3,170.0 423.0,173.9 418.6,177.7 414.2,178.6 409.9,174.2 405.5,175.0 401.2,174.0 396.8,173.1 392.5,169.3 388.1,170.8 383.7,172.3 379.4,171.3 375.0,171.9 370.7,172.9 366.3,172.9 362.0,172.6 357.6,172.2 353.2,173.1 348.9,172.7 344.5,172.5 340.2,171.5 335.8,172.2 331.5,169.5 327.1,169.8 322.7,167.3 318.4,168.0 314.0,164.8 309.7,163.3 305.3,162.6 300.9,162.5 296.6,159.7 292.2,160.7 287.9,157.5 283.5,160.2 279.2,162.4 274.8,162.1 270.4,162.7 266.1,166.0 261.7,164.3 257.4,167.3 253.0,168.2 248.7,163.4 244.3,165.1 239.9,167.0 235.6,166.4 231.2,166.9 226.9,171.1 222.5,168.1 218.2,173.4 213.8,171.7 209.4,169.5 205.1,173.6 200.7,170.5 196.4,171.0 192.0,170.8 187.7,170.4 183.3,171.4 178.9,170.8 174.6,170.1 170.2,170.5 165.9,170.5 161.5,169.1 157.2,166.1 152.8,165.4 148.4,165.9 144.1,165.8 139.7,161.3 135.4,159.2 131.0,159.5 126.6,159.5 122.3,153.5 117.9,155.9 113.6,159.1 109.2,158.2 104.9,147.7 100.5,143.3 96.1,145.6 91.8,146.7 87.4,143.2 83.1,139.8 78.7,142.6 74.4,144.3 70.0,140.8" fill="#8ebce6" opacity="0.28"/><polyline points="70.0,201.0 74.4,187.6 78.7,195.9 83.1,175.7 87.4,214.1 91.8,216.7 96.1,233.5 100.5,213.8 104.9,226.4 109.2,207.9 113.6,187.2 117.9,190.4 122.3,201.7 126.6,237.2 131.0,235.3 135.4,203.9 139.7,218.4 144.1,218.6 148.4,264.2 152.8,231.6 157.2,215.5 161.5,218.1 165.9,215.7 170.2,207.0 174.6,257.9 178.9,244.6 183.3,226.7 187.7,226.4 192.0,215.8 196.4,208.7 200.7,251.1 205.1,169.0 209.4,215.1 213.8,142.6 218.2,234.9 222.5,189.4 226.9,110.4 231.2,286.5 235.6,213.3 239.9,259.3 244.3,160.8 248.7,298.5 253.0,280.2 257.4,131.8 261.7,349.7 266.1,191.9 270.4,273.4 274.8,234.3 279.2,343.1 283.5,216.6 287.9,253.1 292.2,241.9 296.6,267.6 300.9,190.4 305.3,187.0 309.7,226.0 314.0,223.9 318.4,201.0 322.7,253.2 327.1,191.9 331.5,185.7 335.8,341.6 340.2,168.2 344.5,145.8 348.9,343.2 353.2,303.3 357.6,210.4 362.0,189.1 366.3,143.5 370.7,271.1 375.0,179.4 379.4,262.2 383.7,293.8 388.1,209.9 392.5,286.2 396.8,253.5 401.2,211.8 405.5,187.8 409.9,292.9 414.2,129.5 418.6,171.6 423.0,353.6 427.3,203.9 431.7,254.3 436.0,231.3 440.4,365.6 444.7,141.4 449.1,180.4 453.5,254.9 457.8,305.5 462.2,233.3 466.5,216.2 470.9,376.7 475.3,329.8 479.6,165.9 484.0,195.2 488.3,340.5 492.7,320.7 497.0,213.0 501.4,266.4 505.8,358.7 510.1,304.5 514.5,240.7 518.8,156.9 523.2,319.5 527.5,251.2 531.9,179.0 536.3,390.2 540.6,163.0 545.0,266.3 549.3,230.1 553.7,267.3 558.0,237.8 562.4,209.4 566.8,276.7 571.1,352.1 575.5,219.9 579.8,272.8 584.2,256.8 588.5,229.7 592.9,132.9 597.3,112.8 601.6,223.8 606.0,300.9 610.3,248.5 614.7,405.0 619.1,345.6 623.4,252.4 627.8,220.8 632.1,252.0 636.5,252.9 640.8,220.7 645.2,206.0 649.6,212.5 653.9,235.6 658.3,242.9 662.6,251.1 667.0,206.8 671.3,223.6 675.7,251.0 680.1,232.2 684.4,235.5 688.8,242.4 693.1,222.7 697.5,216.1 701.8,221.4 706.2,201.3 710.6,234.0 714.9,226.2 719.3,226.4 723.6,219.1 728.0,229.7 732.3,209.6 736.7,215.5 741.1,228.1 745.4,243.0 749.8,237.7 754.1,184.7 758.5,224.4 762.8,191.8 767.2,219.6 771.6,198.2 775.9,183.5 780.3,204.7 784.6,210.4 789.0,248.7 793.4,183.3 797.7,95.0 802.1,135.0 806.4,289.0 810.8,242.6 815.1,174.1 819.5,297.5 823.9,221.0 828.2,292.2 832.6,215.2 836.9,254.8 841.3,185.5 845.6,210.1 850.0,216.1" fill="none" stroke="#222b38" stroke-width="1.6"/><polyline points="70.0,213.1 74.4,212.5 78.7,212.4 83.1,210.8 87.4,210.9 91.8,210.9 96.1,211.2 100.5,209.5 104.9,208.5 109.2,210.8 113.6,211.2 117.9,209.3 122.3,207.7 126.6,210.3 131.0,211.1 135.4,208.4 139.7,208.3 144.1,210.6 148.4,211.3 152.8,210.8 157.2,210.6 161.5,212.1 165.9,213.1 170.2,212.9 174.6,211.6 178.9,212.1 183.3,212.6 187.7,212.3 192.0,211.7 196.4,211.8 200.7,212.1 205.1,213.5 209.4,211.2 213.8,211.8 218.2,213.1 222.5,212.0 226.9,211.3 231.2,210.2 235.6,210.9 239.9,210.4 244.3,209.4 248.7,208.0 253.0,211.6 257.4,212.0 261.7,210.6 266.1,212.8 270.4,211.7 274.8,212.3 279.2,212.3 283.5,213.3 287.9,211.4 292.2,213.2 296.6,213.0 300.9,213.8 305.3,214.5 309.7,214.1 314.0,213.8 318.4,215.2 322.7,213.8 327.1,215.5 331.5,214.5 335.8,214.8 340.2,215.6 344.5,215.9 348.9,215.1 353.2,217.4 357.6,217.4 362.0,217.6 366.3,217.7 370.7,216.3 375.0,216.0 379.4,216.1 383.7,216.0 388.1,217.3 392.5,216.3 396.8,218.7 401.2,218.4 405.5,218.4 409.9,218.4 414.2,221.6 418.6,220.4 423.0,220.6 427.3,220.8 431.7,220.3 436.0,221.1 440.4,221.5 444.7,222.4 449.1,222.6 453.5,222.4 457.8,224.6 462.2,225.9 466.5,226.6 470.9,227.7 475.3,230.7 479.6,232.1 484.0,232.3 488.3,231.8 492.7,233.8 497.0,235.3 501.4,234.8 505.8,235.3 510.1,236.8 514.5,237.1 518.8,237.4 523.2,237.2 527.5,237.9 531.9,237.8 536.3,235.6 540.6,236.9 545.0,235.8 549.3,235.3 553.7,234.3 558.0,235.8 562.4,236.1 566.8,236.4 571.1,236.7 575.5,238.0 579.8,237.1 584.2,235.8 588.5,233.8 592.9,233.7 597.3,232.9 601.6,234.1 606.0,233.6 610.3,235.1 614.7,232.2 619.1,236.8 623.4,237.6 627.8,237.9 632.1,238.1 636.5,240.7 640.8,239.0 645.2,240.0 649.6,238.1 653.9,240.3 658.3,240.1 662.6,237.3 667.0,241.8 671.3,243.7 675.7,240.0 680.1,241.2 684.4,236.5 688.8,239.5 693.1,241.9 697.5,240.2 701.8,238.6 706.2,242.4 710.6,240.1 714.9,240.0 719.3,235.2 723.6,238.3 728.0,238.5 732.3,237.7 736.7,237.8 741.1,240.9 745.4,239.0 749.8,239.6 754.1,238.6 758.5,238.1 762.8,240.3 767.2,239.8 771.6,237.9 775.9,239.8 780.3,238.1 784.6,237.4 789.0,236.3 793.4,237.0 797.7,237.9 802.1,235.4 806.4,232.1 810.8,237.6 815.1,238.7 819.5,234.6 823.9,233.4 828.2,236.3 832.6,235.6 836.9,236.5 841.3,235.4 845.6,236.8 850.0,239.6" fill="none" stroke="#1565a7" stroke-width="1.8"/><text x="70" y="438" font-family="sans-serif" font-size="12">actual (dark), median forecast (blue), prediction interval (band)</text></svg>
