<svg xmlns="http://www.w3.org/2000/svg" width="900" height="460" viewBox="0 0 900 460"><title>Residual distribution</title><desc>n=1280; mean=-0.001709</desc><rect width="100%" height="100%" fill="#fbfcfe"/><text x="36" y="36" font-family="sans-serif" font-size="22" fill="#18212f">Residual distribution</text><text x="36" y="58" font-family="sans-serif" font-size="12" fill="#5b6675">n=1280; mean=-0.001709</text><rect x="75.0" y="393.2" width="29.7" height="11.8" fill="#4c7c9f"/><rect x="106.7" y="391.8" width="29.7" height="13.2" fill="#4c7c9f"/><rect x="138.3" y="384.4" width="29.7" height="20.6" fill="#4c7c9f"/><rect x="170.0" y="375.6" width="29.7" height="29.4" fill="#4c7c9f"/><rect x="201.7" y="388.8" width="29.7" height="16.2" fill="#4c7c9f"/><rect x="233.3" y="387.4" width="29.7" height="17.6" fill="#4c7c9f"/><rect x="265.0" y="369.7" width="29.7" height="35.3" fill="#4c7c9f"/><rect x="296.7" y="337.4" width="29.7" height="67.6" fill="#4c7c9f"/><rect x="328.3" y="349.1" width="29.7" height="55.9" fill="#4c7c9f"/><rect x="360.0" y="307.9" width="29.7" height="97.1" fill="#4c7c9f"/><rect x="391.7" y="288.8" width="29.7" height="116.2" fill="#4c7c9f"/><rect x="423.3" y="269.7" width="29.7" height="135.3" fill="#4c7c9f"/><rect x="455.0" y="150.6" width="29.7" height="254.4" fill="#4c7c9f"/><rect x="486.7" y="105.0" width="29.7" height="300.0" fill="#4c7c9f"/><rect x="518.3" y="150.6" width="29.7" height="254.4" fill="#4c7c9f"/><rect x="550.0" y="232.9" width="29.7" height="172.1" fill="#4c7c9f"/><rect x="581.7" y="307.9" width="29.7" height="97.1" fill="#4c7c9f"/><rect x="613.3" y="349.1" width="29.7" height="55.9" fill="#4c7c9f"/><rect x="645.0" y="355.0" width="29.7" height="50.0" fill="#4c7c9f"/><rect x="676.7" y="375.6" width="29.7" height="29.4" fill="#4c7c9f"/><rect x="708.3" y="385.9" width="29.7" height="19.1" fill="#4c7c9f"/><rect x="740.0" y="390.3" width="29.7" height="14.7" fill="#4c7c9f"/><rect x="771.7" y="400.6" width="29.7" height="4.4" fill="#4c7c9f"/><rect x="803.3" y="390.3" width="29.7" height="14.7" fill="#4c7c9f"/></svg>
