<svg xmlns="http://www.w3.org/2000/svg" width="900" height="460" viewBox="0 0 900 460"><title>Optimization history</title><desc>Pinball loss by epoch</desc><rect width="100%" height="100%" fill="#fbfcfe"/><text x="36" y="36" font-family="sans-serif" font-size="22" fill="#18212f">Optimization history</text><text x="36" y="58" font-family="sans-serif" font-size="12" fill="#5b6675">Pinball loss by epoch</text><polyline points="70.0,257.0 128.5,286.6 186.9,305.4 245.4,323.7 303.8,335.2 362.3,342.7 420.8,352.8 479.2,365.4 537.7,367.5 596.2,365.6 654.6,360.2 713.1,374.5 771.5,385.8 830.0,390.0" fill="none" stroke="#a65a2e" stroke-width="2"/><polyline points="70.0,90.0 128.5,111.9 186.9,143.6 245.4,164.8 303.8,155.4 362.3,159.3 420.8,156.1 479.2,134.3 537.7,156.4 596.2,135.6 654.6,158.7 713.1,149.3 771.5,144.1 830.0,136.6" fill="none" stroke="#1565a7" stroke-width="2"/><text x="70" y="430" font-family="sans-serif" font-size="12">training (orange), validation (blue)</text></svg>
