<svg xmlns="http://www.w3.org/2000/svg" width="720" height="360" viewBox="0 0 720 360"><rect width="100%" height="100%" fill="white"/><text x="20" y="28" font-size="18">quality_ablation: validation loss</text><text x="20" y="48" font-size="11">config 7105b682645a; error bars are bootstrap 95% CIs</text><rect x="100" y="65.0" width="178" height="225.0" fill="#35618f"/><line x1="189.0" y1="60.0" x2="189.0" y2="69.2" stroke="#111"/><line x1="184.0" y1="60.0" x2="194.0" y2="60.0" stroke="#111"/><line x1="184.0" y1="69.2" x2="194.0" y2="69.2" stroke="#111"/><text x="100" y="315" font-size="11" transform="rotate(25 100 315)">default</text><rect x="286" y="65.0" width="178" height="225.0" fill="#35618f"/><line x1="375.0" y1="60.0" x2="375.0" y2="69.0" stroke="#111"/><line x1="370.0" y1="60.0" x2="380.0" y2="60.0" stroke="#111"/><line x1="370.0" y1="69.0" x2="380.0" y2="69.0" stroke="#111"/><text x="286" y="315" font-size="11" transform="rotate(25 286 315)">repeated_sentences</text><rect x="472" y="64.9" width="178" height="225.1" fill="#35618f"/><line x1="561.0" y1="60.0" x2="561.0" y2="69.0" stroke="#111"/><line x1="556.0" y1="60.0" x2="566.0" y2="60.0" stroke="#111"/><line x1="556.0" y1="69.0" x2="566.0" y2="69.0" stroke="#111"/><text x="472" y="315" font-size="11" transform="rotate(25 472 315)">ungated</text></svg>
