<svg xmlns="http://www.w3.org/2000/svg" width="720" height="360" viewBox="0 0 720 360"><rect width="100%" height="100%" fill="white"/><text x="20" y="28" font-size="18">scaling_law: validation loss</text><text x="20" y="48" font-size="11">config bbb62eea7f3e; error bars are bootstrap 95% CIs</text><rect x="100" y="91.2" width="132" height="198.8" fill="#35618f"/><line x1="166.0" y1="90.1" x2="166.0" y2="92.6" stroke="#111"/><line x1="161.0" y1="90.1" x2="171.0" y2="90.1" stroke="#111"/><line x1="161.0" y1="92.6" x2="171.0" y2="92.6" stroke="#111"/><text x="100" y="315" font-size="11" transform="rotate(25 100 315)">tokens_100000</text><rect x="240" y="66.6" width="132" height="223.4" fill="#35618f"/><line x1="306.0" y1="60.0" x2="306.0" y2="71.2" stroke="#111"/><line x1="301.0" y1="60.0" x2="311.0" y2="60.0" stroke="#111"/><line x1="301.0" y1="71.2" x2="311.0" y2="71.2" stroke="#111"/><text x="240" y="315" font-size="11" transform="rotate(25 240 315)">tokens_20000</text><rect x="380" y="95.3" width="132" height="194.7" fill="#35618f"/><line x1="446.0" y1="94.4" x2="446.0" y2="96.7" stroke="#111"/><line x1="441.0" y1="94.4" x2="451.0" y2="94.4" stroke="#111"/><line x1="441.0" y1="96.7" x2="451.0" y2="96.7" stroke="#111"/><text x="380" y="315" font-size="11" transform="rotate(25 380 315)">tokens_200000</text><rect x="520" y="83.7" width="132" height="206.3" fill="#35618f"/><line x1="586.0" y1="81.4" x2="586.0" y2="86.2" stroke="#111"/><line x1="581.0" y1="81.4" x2="591.0" y2="81.4" stroke="#111"/><line x1="581.0" y1="86.2" x2="591.0" y2="86.2" stroke="#111"/><text x="520" y="315" font-size="11" transform="rotate(25 520 315)">tokens_50000</text></svg>
